<svg xmlns="http://www.w3.org/2000/svg" viewBox="0 0 64 64">
  <rect width="64" height="64" rx="14" fill="#10202b"/>
  <rect x="6" y="6" width="52" height="52" rx="10" fill="#ffffff"/>
  <rect x="9" y="9" width="46" height="46" rx="8" fill="#f7fbff"/>
  <path d="M14 48V16h6v32h-6zm11 0V16h7l7 18 7-18h7v32h-6V27l-6 15h-4l-6-15v21h-6z" fill="#10202b"/>
  <path d="M16 48V16h4v32h-4zm11 0V16h5l7 18 7-18h5v32h-4V24l-7 18h-2l-7-18v24h-4z" fill="#eb5e55"/>
  <path d="M9 50h46v5H14a5 5 0 0 1-5-5z" fill="#23a9c7"/>
</svg>
